<svg xmlns="http://www.w3.org/2000/svg" viewBox="0 0 64 64" fill="none">
  <defs>
    <linearGradient id="g" x1="0" y1="0" x2="64" y2="64" gradientUnits="userSpaceOnUse">
      <stop offset="0%" stop-color="#22d3ee"/>
      <stop offset="100%" stop-color="#a855f7"/>
    </linearGradient>
    <linearGradient id="s" x1="16" y1="16" x2="48" y2="56" gradientUnits="userSpaceOnUse">
      <stop offset="0%" stop-color="#22d3ee"/>
      <stop offset="100%" stop-color="#6366f1"/>
    </linearGradient>
  </defs>
  <rect width="64" height="64" rx="14" fill="#ffffff"/>
  <rect x="2" y="2" width="60" height="60" rx="12" fill="none" stroke="url(#g)" stroke-width="1.5" opacity="0.4"/>
  <path d="M32 10 L50 20 L50 38 C50 48 42 56 32 58 C22 56 14 48 14 38 L14 20 Z" fill="url(#s)" opacity="0.15" stroke="url(#s)" stroke-width="2"/>
  <path d="M32 18 L44 24 L44 36 C44 43 39 49 32 51 C25 49 20 43 20 36 L20 24 Z" fill="none" stroke="#22d3ee" stroke-width="1.5" opacity="0.6"/>
  <circle cx="32" cy="34" r="4" fill="#22d3ee"/>
  <path d="M32 28 L32 30" stroke="#22d3ee" stroke-width="2" stroke-linecap="round"/>
  <path d="M32 38 L32 40" stroke="#22d3ee" stroke-width="2" stroke-linecap="round"/>
  <path d="M26 34 L28 34" stroke="#22d3ee" stroke-width="2" stroke-linecap="round"/>
  <path d="M36 34 L38 34" stroke="#22d3ee" stroke-width="2" stroke-linecap="round"/>
</svg>
